<?xml version='1.0' encoding='utf-8'?>
<svg xmlns="http://www.w3.org/2000/svg" version="1.1" id="Camada_1" x="0px" y="0px" viewBox="0 0 1600 1600" style="enable-background:new 0 0 1600 1600;"> <style type="text/css"> .st0{fill-rule:evenodd;clip-rule:evenodd;fill:#F0D590;} .st1{fill-rule:evenodd;clip-rule:evenodd;fill:#DABF7C;} .st2{fill-rule:evenodd;clip-rule:evenodd;fill:#FEEB0C;} .st3{fill:#3A063D;} .st4{fill:none;stroke:#211915;stroke-width:2.7896;stroke-miterlimit:22.9256;} .st5{fill-rule:evenodd;clip-rule:evenodd;fill:#211915;} .st6{fill-rule:evenodd;clip-rule:evenodd;fill:#FFD9DC;stroke:#3A063D;stroke-width:5.5789;stroke-miterlimit:22.9256;} .st7{fill-rule:evenodd;clip-rule:evenodd;fill:#FEEB0C;stroke:#3A063D;stroke-width:5.5789;stroke-miterlimit:22.9256;} .st8{fill-rule:evenodd;clip-rule:evenodd;fill:#E3D10D;} .st9{fill-rule:evenodd;clip-rule:evenodd;fill:#FFD9DC;stroke:#3A063D;stroke-width:2.2316;stroke-miterlimit:22.9256;} .st10{fill-rule:evenodd;clip-rule:evenodd;fill:#C2B202;stroke:#3A063D;stroke-width:2.2316;stroke-miterlimit:22.9256;} .st11{fill-rule:evenodd;clip-rule:evenodd;fill:#C2B202;stroke:#211915;stroke-width:2.2316;stroke-miterlimit:22.9256;} .st12{fill-rule:evenodd;clip-rule:evenodd;fill:#3A063D;} .st13{fill-rule:evenodd;clip-rule:evenodd;fill:#DACCE7;stroke:#3A063D;stroke-width:2.2316;stroke-miterlimit:22.9256;} .st14{fill-rule:evenodd;clip-rule:evenodd;fill:#DACCE7;stroke:#3A063D;stroke-width:5.5785;stroke-miterlimit:22.9256;} .st15{fill:none;stroke:#3A063D;stroke-width:2.2317;stroke-miterlimit:22.9256;} .st16{fill-rule:evenodd;clip-rule:evenodd;fill:#B6D9F3;stroke:#3A063D;stroke-width:2.2316;stroke-miterlimit:22.9256;} .st17{fill-rule:evenodd;clip-rule:evenodd;fill:#FFD9DC;} .st18{fill-rule:evenodd;clip-rule:evenodd;fill:#C2B202;stroke:#3A063D;stroke-width:2.2317;stroke-miterlimit:22.9256;} .st19{fill-rule:evenodd;clip-rule:evenodd;fill:#665A00;stroke:#3A063D;stroke-width:5.5789;stroke-miterlimit:22.9256;} .st20{fill-rule:evenodd;clip-rule:evenodd;fill:#968400;stroke:#211915;stroke-width:5.5789;stroke-miterlimit:22.9256;} .st21{fill-rule:evenodd;clip-rule:evenodd;fill:#E0B3B7;stroke:#3A063D;stroke-width:2.2316;stroke-miterlimit:22.9256;} .st22{fill-rule:evenodd;clip-rule:evenodd;fill:#C99196;stroke:#3A063D;stroke-width:2.2316;stroke-miterlimit:22.9256;} .st23{fill-rule:evenodd;clip-rule:evenodd;fill:#FFFFFF;} .st24{fill-rule:evenodd;clip-rule:evenodd;fill:#968400;stroke:#211915;stroke-width:5.579;stroke-miterlimit:22.9256;} .st25{fill:none;stroke:#3A063D;stroke-width:5.5789;stroke-miterlimit:22.9256;} .st26{fill:none;stroke:#3A063D;stroke-width:2.7895;stroke-miterlimit:22.9256;} .st27{fill:none;stroke:#3A063D;stroke-width:2.2316;stroke-miterlimit:22.9256;} .st28{fill:none;stroke:#211915;stroke-width:5.5789;stroke-miterlimit:22.9256;} .st29{fill:none;stroke:#211915;stroke-width:2.2316;stroke-miterlimit:22.9256;} .st30{fill:none;stroke:#211915;stroke-width:2.2312;stroke-miterlimit:22.9256;} .st31{fill-rule:evenodd;clip-rule:evenodd;fill:#7C2580;stroke:#3A063D;stroke-width:5.5789;stroke-miterlimit:22.9256;} .st32{fill-rule:evenodd;clip-rule:evenodd;fill:#2E9547;} </style> <g> <polygon class="st0" points="801,1186.64 1203.5,1395.32 1605.99,1603.99 801,1603.99 -3.99,1603.99 398.5,1395.32 801,1186.64 "/> <path class="st1" d="M795.39,1319.32c168.79,0,305.62,37.99,305.62,84.85c0,46.86-136.83,84.85-305.62,84.85 c-168.79,0-305.62-37.99-305.62-84.85C489.77,1357.3,626.6,1319.32,795.39,1319.32L795.39,1319.32z"/> <path class="st2" d="M735.93,776.56c15.33-17.58,55.15-49.71,69.32-65.07l-0.55,1.64c0.98-2.39,2.11-4.76,3.43-6.93 c6.98-11.53,23.6-12.09,34.98-6.4c6.37-5.41,12.21-10.96,17.25-16.65c39.65-44.79,74.28-102.89,133.99-123.43 c-12.17-25.11-33.6-70.52-11.42-80.02c19.1-8.18,38.93,43.84,50.1,71.25c18.43-3.19,30.48-0.72,29.93,3.43 c-0.73,5.47-14.6,12.77-14.6,12.77s10.58,5.11,12.04,13.14c0.56,3.05,0.21,6.37-0.43,9.31c1.23,3.81,2.26,7.86,3.1,12.13 c4.62,3.01,10.17,7.3,9.73,10.31c-0.32,2.27-3.39,3.17-7.71,3.44c0.41,3.99,0.69,8.1,0.86,12.29l69.48,159.7 c49.03-14.18,104.05-1.97,128.43,52.93l3.76,8.47c22.5,50.67-0.55,110.55-51.22,133.05l-27.53,12.23 c-50.68,22.5-110.55-0.55-133.06-51.22l-3.76-8.47c-23-51.79,0.47-98.33,39.63-125.99l-36.22-88.67 c-4.37,17.46-9.64,32.52-14.96,42.6c-15.68,29.71-41.78,62.73-85.4,97.08c-11.62,9.15-24.12,16.22-36.85,21.98l0.68,0.56 c0,0,1.31,2.68-3.22,11.32c-4.53,8.63-16.4,9.85-16.4,9.85c-8.95-0.38-16.16,3.33-25.58,5.84c-11.11,2.96-23.03,5.92-31.46,7.84 c7.76,10.61,15.56,21.1,23.29,31.14c1.31-1.69,1.98-2.73,1.98-2.73l11.77,14.89c0,0-0.38,1.3-1.43,3.52 c53.79,67.58,59.35,80.78,63.43,92.68c4.14,12.09-6.56,25.9-6.56,25.9l5.18,12.78c0,0,7.77-1.48,13.92,12.88 c6.15,14.36,73.16,134.7,72.48,168.21c-0.68,33.5-22.56,73.84-40.34,86.15c-1.41,0.98-2.99,1.97-4.7,2.97 c20.43,10.37,44.08,28.99,27.06,38.24c-14,7.6-11.93,9.32-37.9,4.39c-25.97-4.93-64.23-16.23-67.32-18.89 c-0.79-0.68,0.11-1.5,2.14-2.47c-3.51,0.08-6.93-0.02-10.22-0.31c-30.64-2.72-62.64-21.73-81.14-43.5 c-10.03,3.11-20.29,6.32-30.63,9.42c-1.63,7.76-4.15,14.22-7.89,18.34c-19.32,21.32-61.37,39.4-81.85,40.94 c-8.35,4.59-21.98,10.94-38.52,17.45c-25.94,10.21-61.28,17.36-63.73,14.3c-2.45-3.07-1.23-16.14,9.4-26.55 s26.76-23.08,26.76-23.08c-0.11,0.07-0.02,0.05,0.24-0.03c-16.4-6.94-31.46-14.96-39.65-22.33 c-11.83-10.65-14.34-21.76-12.11-36.99c-15.7-13.47-24.28-22.62-24.28-22.62s21.36-14.38,39.41-33.73 c10.16-33.37,28.02-89.65,38.5-139.53c2.6-30.39,4.1-61.76,3.98-87.77c-2.12,6.61-4.51,13.19-7.09,19.81 c-2.41,0.34-4.85,0.57-7.32,0.69c-6.53,16.71-12.72,31.43-15.74,41.76c-8.78,30.03-15.25,75.77-23.1,91.01 c-7.85,15.25-15.82,23.42-15.82,23.42s5.85,20.89-1.04,21.94c-6.9,1.04-12.33-5.01-12.33-5.01s0.63,1.67,1.25,5.85 c0.63,4.18,5.43,17.13-5.85,16.51c-11.28-0.63-12.95-3.76-12.95-3.76s1.67,5.64,1.67,12.75c0,7.11-0.21,12.75-7.52,11.08 c-7.31-1.67-15.04-7.1-15.04-7.1s2.72,9.82,1.05,19.85c-1.67,10.03-14.31,4.42-20.59,2.06c-6.28-2.36-34.56-20.42-54.19-99.75 c-17.69-71.47,22.64-152.5,51.47-204.61c-1.48-2.85-2.76-5.7-3.8-8.54c23.45-41.87,61.47-85.85,92.77-125.22l2.76-3.68 c0.98-2.69,2.31-5.22,3.91-7.68c-30.78,16.24-96.06,47.42-151.25,51.98c-74.89,6.18-110.74-30.77-110.97-31.01 c0.56,1.36,0.84,2.12,0.84,2.12s-17.94,17.18-41.62,23.67C219.32,916.14,162.6,834.1,204,797.88c7.35-6.43,18.29-8.66,25.95-9.46 c5.08-0.53,4.44-0.35,8.89-0.51c0.03,0.03,0.11,0.08,0.22,0.15l-32.52-32.55c0,0-59.6-67.55-67.55-149.99 c-7.95-82.45,19.87-181.78,63.57-235.42c43.71-53.64,119.62-90.08,147.73-100.12c28.12-10.04,68.28-12.05,80.33-10.04 c1.6,0.27,3.01,0.52,4.24,0.75c-7.26-2.7-18.43-8.04-32.51-18.49c-25.86-19.2-23.12-52.5,5.88-39.96 c23.33,10.09,31.94,43.26,34.83,56.03c1.77-9.07,8.9-34.82,32.79-34.5c28.99,0.39,2.74,25.86-10.19,30.95 c-10.35,4.08-18.95,5.9-21.96,6.46c0.15,0.68,0.27,1.21,0.36,1.58c2.54-1.19,18.01-7.27,59.86-1.81 c46.19,6.02,124.51,55.23,152.62,89.36c13.84,16.81,40.57,51,65.9,90.36c2.72-6.93,9.02-20.25,19.06-26.3 c47.11-28.4,107.98,50.61,71.95,105.97c-13.39,20.57-35.22,32.43-35.22,32.43l-1.24-2.39c-0.21-0.72-0.43-1.45-0.65-2.18 c1.8,5.92,3.29,11.71,4.4,17.33c18.04,91.39-48.02,158.33-105.73,222.17c3.28-0.94,6.59-1.75,9.94-2.44 c0.33-0.88,0.67-1.76,1.04-2.63c-0.36-1.58,20.3-3.31,20.45-2.45c0,0-0.66,0.83-1.61,2.52c5.82-0.29,11.7-0.19,17.62,0.34 c3.65-1.71,5.23-4.23,10.84-5.87C734.04,776.96,734.93,776.76,735.93,776.56L735.93,776.56z"/> <path class="st3" d="M727.44,762.57c9.4-10.01,23.43-22.5,36.79-34.38c11.33-10.07,22.15-19.7,28.27-26.07 c0.68-1.35,1.42-2.7,2.23-4.03c8.15-13.46,30.18-19.57,44.82-16.11l1.8-1.71c2.69-2.59,5.13-5.1,7.27-7.51 c8.27-9.34,16.81-19.93,25.44-30.61c28.21-34.94,57.25-70.91,99.03-90.71c-4.75-10.5-9.55-22.33-12.51-33.63 c-6.02-23-4.41-43.71,16.21-52.55c27.21-11.66,47.48,24.49,61.65,57.55c1.81,4.21,3.32,7.86,4.68,11.16 c5.29-0.31,9.96-0.15,13.79,0.36c4.17,0.56,7.75,1.56,10.55,2.92c6.14,2.98,9.92,7.69,11,13.89v0.06c0.29,1.68,0.32,3.45,0.07,5.28 c-0.6,4.3-3.1,8.34-6.25,11.85c1.66,2.72,2.95,5.79,3.57,9.2c0.53,2.91,0.64,5.73,0.48,8.39c-0.05,0.91-0.14,1.8-0.24,2.65 c0.32,1.09,0.6,2.09,0.83,3.02l0.22,0.9c1.24,0.97,2.43,1.98,3.52,3.02c5.35,5.11,8.77,11.35,7.71,18.75 c-0.7,4.96-2.86,8.7-6.2,11.44l62.4,143.44c25.32-4.95,51.49-3.49,74.73,6.09c24.59,10.14,45.69,29.12,58.89,58.85l5.18,11.66v0.14 c11.56,28.35,11.03,58.91,0.72,85.69c-10.73,27.87-32.05,51.68-61.36,64.7l-27.54,12.23c-29.28,13-61.2,12.85-89.03,2.14 c-27.87-10.73-51.68-32.05-64.7-61.36l-3.76-8.47c-12.48-28.1-13.1-54.98-5.56-78.97c7.19-22.86,21.77-42.84,40.48-58.51 l-15.77-38.6c-0.82,1.77-1.65,3.44-2.47,5.01c-8.35,15.81-19.43,32.47-34.19,49.69c-14.62,17.05-32.78,34.63-55.39,52.43 c-6.23,4.9-12.87,9.35-19.79,13.43c-3.95,2.33-7.88,4.46-11.79,6.44c-0.76,2.69-1.91,5.68-3.63,8.95 c-8.42,16.04-28.77,18.15-28.82,18.16l-1.08,0.1l-1.01-0.04c-3.5-0.15-7.7,1.22-12.32,2.73c-2.61,0.85-5.32,1.73-8.65,2.62 l-5.66,1.49l24.79,31.37l-1.23,3.68c23.75,30.05,37.44,48.81,45.77,61.59c9.7,14.88,12.45,22.07,14.8,28.9 c4.05,11.82,0.28,23.69-3.52,31.47c5.37,3.03,11.19,8.67,15.63,19.04c1.06,2.46,4.92,9.94,10.24,20.22 c21.17,40.94,64.09,123.96,63.47,154.44c-0.37,18.15-6.02,37.75-13.98,54.74c-5.72,12.22-12.82,23.37-20.18,31.94 c3.62,2.65,6.98,5.42,9.85,8.23c4.77,4.67,8.49,9.76,10.48,15.1c3.08,8.26,2.41,16.27-3.42,23.57c-2.22,2.78-5.16,5.23-8.91,7.26 l-4.36,2.5c-13.63,7.82-15.57,8.93-43.93,3.55c-12.68-2.41-27.95-6.21-40.91-9.84c-14.46-4.06-27.15-8.57-32.2-11.52l-0.76-0.06 v-0.06c-16.99-1.51-34.15-7.26-49.62-15.55c-13.11-7.03-25.14-15.93-34.95-25.64l-12.95,4c-0.48,1.44-0.99,2.81-1.54,4.12 c-1.93,4.59-4.44,8.72-7.63,12.24c-10.37,11.45-25.92,21.84-41.79,29.78c-16.7,8.35-34.3,14.24-46.96,15.95 c-4.26,2.24-9.45,4.77-15.37,7.45c-6.48,2.94-13.95,6.11-22.15,9.33c-13.02,5.13-28.35,9.54-41.14,12.4 c-18.81,4.22-35.4,3.47-40.55-2.97c-4.18-5.22-6.04-16.62-2.07-27.83c2.25-6.37,6.28-13.41,12.7-19.7 c1.47-1.44,3.03-2.92,4.62-4.39c0.89-1.31,2.11-2.76,3.68-4.33l-1.8-1c-7.41-4.17-13.85-8.52-18.66-12.84 c-8.12-7.31-13.13-15.07-15.82-23.91c-1.79-5.88-2.42-11.88-2.17-18.25c-12.38-11.02-19.42-18.54-19.44-18.56l-12.31-13.43 l10.89-7.33c-2.69,1.14-5.86,1.61-9.6,1.29c-3.16,17-14.84,19.8-27.66,17.67c-4.64-0.78-9.08-2.48-12.53-3.8l-0.02,0.05l-1.34-0.51 l0.02-0.04c-5.56-2.13-22.5-12.06-38.56-41.64c-8.67-15.95-17.67-38.2-25.3-69.01c-9.65-38.97-3.66-79.96,8.6-118.11 c10.83-33.71,26.63-65.21,40.57-90.82c-0.39-0.93-0.72-1.79-1.01-2.56l-2.49-6.79l3.54-6.31c16.38-29.24,39.4-59.17,62.46-87.91 c-3.33,1.36-6.73,2.7-10.18,4.02c-28.34,10.89-59.96,20.25-89.08,22.66c-40.71,3.36-71.11-5.14-91.35-14.51 c-7.69-3.56-14.04-7.34-19.01-10.71c-8.64,6.39-22.41,15.02-38.55,19.45c-25.97,7.12-50.81,0.91-70.54-12.18 c-12.49-8.29-22.95-19.37-30.31-31.54c-7.58-12.54-11.98-26.49-12.1-40.11c-0.14-16.37,5.76-31.92,19.46-43.91 c4.02-3.52,8.54-6.14,13.14-8.08l-11.4-11.41l-0.74-0.8c-0.18-0.21-62.86-71.23-71.3-158.78c-4.13-42.83,0.9-89.81,12.56-133 c11.96-44.27,31-85.01,54.45-113.79c18.54-22.75,42.37-42.47,66.18-58.6c35.41-24,70.89-40.17,88.45-46.44 c11.83-4.23,25.44-7.14,38.44-8.99c-8.52-9.35-13.27-20.06-14.32-29.39c-0.66-5.89,0.04-11.54,2.1-16.47 c2.48-5.94,6.74-10.69,12.78-13.64c7.87-3.85,18.2-4.11,30.44,1.18c14.73,6.37,24.72,18.64,31.51,31.55 c7.26-6.77,17.01-11.48,30.07-11.3c9.56,0.13,16.36,2.52,20.98,6.36c6.34,5.27,8.45,11.95,7.44,19.34 c-0.5,3.72-1.94,7.4-4.02,10.92c1.79,0.2,3.63,0.43,5.51,0.67c24.27,3.17,55.85,16.73,85.26,33.96 c31.74,18.59,61.66,41.83,77.45,61c8.13,9.87,20.73,25.78,35.06,45.42c5.84,8,11.88,16.51,17.91,25.3 c3.33-3.89,7.23-7.44,11.76-10.18c15.61-9.41,32.23-10.31,47.8-5.18c12.82,4.22,24.76,12.69,34.47,23.81 c9.39,10.75,16.77,24.09,20.85,38.47c6.46,22.77,4.81,48.32-9.88,70.89c-9.33,14.34-22.16,25-30.93,31.24l0.49,2.39 c16.56,83.88-30,146.69-81.21,204.38c1.13,0.03,2.27,0.07,3.4,0.13C720.62,765.51,723.21,763.96,727.44,762.57L727.44,762.57z M785.14,751.69c-14.52,12.92-29.87,26.57-37.4,35.2l-3.56,4.08l-5.3,1.03l-0.82,0.18c-0.56,0.13-0.08-0.02-0.39,0.07 c-0.87,0.25-1.75,0.87-2.58,1.45c-1.62,1.14-3.19,2.24-5.99,3.56l-3.84,1.79l-4.22-0.38c-2.57-0.23-5.12-0.37-7.62-0.42 c-2.48-0.05-5.1,0-7.85,0.14l-8.96,0.45l-0.01,0.03l-8.51,1.77c-1.18,0.24-2.64,0.58-4.37,1.01c-1.06,0.26-2.54,0.66-4.4,1.19 l-52.39,14.96l-27.75,42.67c-0.57,0.88-1.04,1.67-1.39,2.34c-0.31,0.61-0.62,1.32-0.92,2.14l-0.79,2.16l-4.19,5.58l-0.25,0.37 c-4.65,5.85-11.47,14.27-18.42,22.86c-24.58,30.37-50.68,62.62-69.06,93.55l4.03,7.73l-4.11,7.42 c-14.03,25.35-30.85,57.72-41.96,92.28c-10.69,33.26-16.02,68.52-7.98,101.02c6.92,27.97,14.84,47.68,22.35,61.51 c10.62,19.55,18.58,25.63,21.55,27.07c-0.29-1.79-0.6-2.92-0.6-2.92l-11.22-41.69l31.32,21.93l-26.16-98.11l14.61,23.38 l-23.61-47.22l67.77,77.45l3.17-3.17c0.02-0.02,6.29-6.46,12.99-19.49c3.59-6.97,7.49-25.21,11.63-44.6 c3.15-14.76,6.44-30.16,10.37-43.59c2.5-8.54,6.78-19.32,11.67-31.64l8.18-20.91l7.1-0.37l0.13-0.37c1.03-2.86,2.09-5.98,3.19-9.41 l30.19-94.26l0.44,98.99c0.06,13.27-0.28,27.63-0.94,42.33c-0.73,15.96-1.76,31.83-3.04,46.79l-0.06,0.74l-0.24,1.16 c-9.49,45.13-24.82,95.12-35.3,129.29l-4.65,15.14l-2.42,2.6c-9.04,9.69-18.88,18.23-26.78,24.56c2.94,2.68,6.4,5.76,10.36,9.16 l6.6,5.67l-1.25,8.54c-0.8,5.46-0.84,9.88,0.23,13.39c0.97,3.19,3.13,6.3,6.84,9.64c3.01,2.71,7.53,5.71,13,8.79 c6.75,3.8,14.39,7.47,22.22,10.78l38.27,16.19l-36.99,12.33c-3.99,3.2-12.91,10.46-20.19,17.22c10.85-2.54,23.5-6.25,34.44-10.56 c7.57-2.98,14.55-5.94,20.67-8.71c6.54-2.96,11.97-5.65,16-7.87l3-1.65l3.39-0.26c9.17-0.69,24.08-5.63,38.83-13.01 c12.8-6.4,25-14.41,32.56-22.76c0.54-0.6,1.17-1.77,1.84-3.38c0.95-2.27,1.71-4.85,2.3-7.65l1.93-9.18l8.95-2.69 c10.59-3.18,17.55-5.34,24.38-7.46l16-4.96l6.73,7.92c8.37,9.84,19.95,19.07,32.94,26.04c12,6.43,25.02,10.87,37.56,11.99 l0.01-0.06c1.95,0.17,3.29,0.27,4.04,0.29c1.52,0.05,3.03,0.05,4.52,0.02l50.52-1.08l-7.02-3.56l26.9-15.71l-0.02-0.03l1.73-1.1 c7.21-4.99,15.73-16.91,22.55-31.48c6.29-13.43,10.75-28.56,11.03-42.06c0.46-22.46-40.05-100.8-60.03-139.44 c-5.61-10.86-9.69-18.75-11.22-22.31c-1.18-2.76,2.37-3.4,2.77-3.46l-12.16,1.82l-13.15-32.45l5.35-7.13 c0.01-0.02,5.61-7.33,4.22-11.38c-1.74-5.06-3.8-10.42-11.36-22.01c-8.29-12.72-22.81-32.46-49.39-65.86l-0.12,0.15l-12.43-16.14 c-4.97-6.45-8.82-11.51-11.82-15.54c-2.85-3.81-6.92-9.35-11.72-15.91l-14.11-19.28l23.27-5.32c4.33-0.99,9.5-2.23,14.91-3.58 c5.14-1.28,10.65-2.7,16.06-4.14c2.17-0.58,4.59-1.37,6.92-2.13c7-2.28,13.42-4.38,21.89-4.25c0.51-0.08,1.2-0.23,1.83-0.46 l-11.41-9.55l22.83-10.33c6.04-2.73,11.88-5.69,17.37-8.92c5.41-3.19,10.83-6.85,16.22-11.09c21.01-16.54,37.71-32.65,50.96-48.13 c13.12-15.31,22.92-30.02,30.26-43.91c2.32-4.4,4.65-9.93,6.89-16.33c2.32-6.62,4.59-14.31,6.71-22.77l11.63-46.49l59.08,144.63 l-10.19,7.2c-18.12,12.79-32.31,30.01-38.55,49.84c-5.39,17.14-4.87,36.51,4.21,56.95l3.76,8.47 c9.49,21.36,26.87,36.91,47.23,44.75c20.4,7.85,43.76,7.98,65.16-1.52l27.6-12.26c21.33-9.49,36.85-26.86,44.69-47.2 c7.85-20.4,7.98-43.76-1.52-65.16l-3.76-8.47c-9.58-21.59-24.67-35.28-42.16-42.48c-20.55-8.47-44.7-8.32-67.57-1.71l-13.26,3.83 l-76.15-175.03l-0.12-2.96c-0.05-1.45-0.17-3.4-0.34-5.85c-0.15-2.13-0.3-3.95-0.45-5.46l-0.64-6.27l-1.2-6.06 c-0.34-1.74-0.75-3.54-1.23-5.41c-0.54-2.11-1-3.77-1.38-4.93l-1.31-4.07l0.88-4.05c0.18-0.84,0.32-1.62,0.35-2.21 c0.03-0.5,0.04-0.87,0.01-1.01c-0.02-0.12-3.42-1.76-3.43-1.76l-25.65-12.35l-16.43,5.65c-42.24,14.53-72.06,51.47-100.93,87.22 c-8.6,10.66-17.13,21.22-26.42,31.72c-2.9,3.28-5.91,6.39-8.99,9.35c-3.2,3.07-6.5,6.04-9.86,8.9l-7.87,6.68l-9.29-4.65 c-3.2-1.6-7.13-2.27-10.6-1.64c-1.8,0.33-3.29,1.02-3.96,2.13c-0.38,0.63-0.77,1.36-1.16,2.15c-0.19,0.4-0.58,1.3-1.09,2.57 l-9.7-3.57l7.23,6.66C809.73,729.81,797.73,740.49,785.14,751.69L785.14,751.69z M1008.49,552.91l6.77,13.97l5.98-3.15l-4.62-11.38 c-2.32-5.72-4.92-12.15-7.1-17.23c-8.39-19.57-18.31-41.86-20.44-40.95c-1.56,0.67-0.32,7.41,1.87,15.77 C994.66,524.08,1002.68,540.91,1008.49,552.91L1008.49,552.91z M974.21,1379.29l-8.29-4.21l-22.11,10.52 c10.04,2.65,20.61,5.17,29.54,6.86c15.79,3,17.47,2.85,21.58,0.55C989.64,1388.09,981.74,1383.11,974.21,1379.29L974.21,1379.29z M603.53,1433.4c0.34,0.42,0.61,0.62,0.85,0.65C603.51,1433.24,602.87,1432.58,603.53,1433.4L603.53,1433.4z M543.72,1297.98 c3.65-2.54,19.17-13.61,33.44-28.32l2.46-8.09c4.68-15.24,10.34-33.7,15.98-53.39c-0.44,1.01-0.89,1.96-1.35,2.85 c-4.62,8.96-9.4,15.92-12.96,20.58c1.46,10.57,1.55,27.72-11.96,32.29c-1.18,9.62-5.97,17.34-18.6,18.29 c-0.28,2.93-0.9,5.81-2.26,8.74C547.17,1293.72,545.62,1296.1,543.72,1297.98L543.72,1297.98z M607.78,1162.89 c2.23-8.97,4.3-17.91,6.15-26.64l0.19-2.31c-1.85,7.9-3.66,16.35-5.42,24.6L607.78,1162.89L607.78,1162.89z M562.5,1233.38 c2.66-0.54,1.45-0.95-1.1-1.25L562.5,1233.38L562.5,1233.38z M578.7,838.02l53.4-28.18l-4.56,7.02l44.49-49.25 c-0.26,0.27-1.24,1.35-0.01-0.01c52.83-58.16,108.9-119.91,93.28-199.05c-0.47-2.39-1.06-4.96-1.75-7.69 c-0.52-2.04-0.99-3.82-1.41-5.34l-0.51-1.74l-0.02,0l-0.33-1.09l14.51-4.36l-5.12-9.28c0.05-0.03,18.37-9.98,29.62-27.27 c9.21-14.14,10.14-30.52,5.95-45.3c-2.8-9.88-7.83-19-14.21-26.29c-6.05-6.93-13.23-12.12-20.69-14.58 c-7.15-2.36-14.72-1.99-21.72,2.23c-2.06,1.24-4.03,3.39-5.78,5.8c-3.21,4.43-5.48,9.47-6.77,12.75l-11.24,28.59l-16.62-25.83 c-10.65-16.55-21.22-31.74-30.84-44.94c-13.66-18.73-25.95-34.22-33.95-43.95c-13.53-16.43-40.25-36.98-69.08-53.87 c-2.9-1.69-5.81-3.35-8.72-4.95l-111.87-21.04l-10.57,54.18l-13.23-58.63l-0.78-0.14c-2.22-0.39-1.56-0.29-2.14-0.39 c-5.65-0.94-19.8-0.69-36.13,1.35c-12.33,1.54-25.44,4.12-36.33,8.01c-16.18,5.78-48.85,20.66-81.43,42.75 c-21.54,14.6-42.98,32.29-59.41,52.45c-20.61,25.3-37.56,61.88-48.43,102.11c-10.78,39.91-15.45,83-11.7,121.93 c7.09,73.61,58.32,134.83,63.39,140.73l27.17,27.2l0.29-0.01l3.93,4.23l30.16,30.19l-1.09-2.66l56.6,58.22 c0.09,0.09,7.1,7.32,22.82,14.59c16.46,7.62,41.43,14.5,75.61,11.68c26.06-2.15,54.68-10.66,80.47-20.56 C540.04,857.63,563.56,846.01,578.7,838.02L578.7,838.02z M305.74,870.2l-12.17-29.66l-59.04-36.79c-0.64,0.05-1.53,0.13-2.99,0.29 c-2.88,0.3-6.4,0.88-9.95,2c-2.83,0.9-5.48,2.09-7.26,3.64c-6.16,5.39-8.82,12.5-8.76,20.05c0.07,7.74,2.86,16.15,7.67,24.12 c5.04,8.34,12.19,15.92,20.71,21.57c12.8,8.49,28.67,12.58,44.95,8.12C289.87,880.54,299.4,874.77,305.74,870.2L305.74,870.2z M411.71,229.59c2.25,1.67,4.41,3.19,6.47,4.58c-3.97-7.6-9.27-14.56-16.16-17.54l-1-0.43 C402.44,220.45,405.97,225.34,411.71,229.59L411.71,229.59z M672.04,767.61C672.11,767.52,672.1,767.54,672.04,767.61 L672.04,767.61z M718.46,790.44l-0.88,0.88c0,0,0.83-0.82,0.9-0.87L718.46,790.44L718.46,790.44z"/> <path class="st4" d="M476.65,1255.12c0,0.56,6.16,23.64,11.54,31.25c5.38,7.62,10.64,5.49,12.88-0.45 c2.24-5.94,2.69-12.77,2.69-12.77s5.49-5.15,8.96-8.96c3.47-3.81,3.7-10.53,3.7-10.53"/> <path class="st5" d="M478.37,1248.2c-2.26,1.72-3.58,5.14-3.05,7.46l2.7-0.25C477.84,1252.49,477.98,1249.86,478.37,1248.2 L478.37,1248.2z"/> <path class="st5" d="M514.69,1247.69c2.15,1.64,3.41,4.9,2.9,7.1l-2.57-0.24C515.2,1251.77,515.07,1249.27,514.69,1247.69 L514.69,1247.69z"/> <path class="st5" d="M506.33,1282.08l46.82-39.58c0,0-9.61,13.36-24.34,24.72C514.07,1278.58,506.45,1282.21,506.33,1282.08 L506.33,1282.08z"/> <path class="st6" d="M585.43,855.01c0,0-58.91,76.97-87.18,127.23c-28.27,50.27-80.11,141.37-60.48,220.7 c19.63,79.33,47.91,97.39,54.19,99.75c6.28,2.36,18.92,7.97,20.59-2.06c1.67-10.03-1.04-19.85-1.04-19.85s7.73,5.43,15.05,7.1 c7.31,1.67,7.52-3.97,7.52-11.07c0-7.11-1.67-12.75-1.67-12.75s1.67,3.13,12.95,3.76c11.28,0.63,6.48-12.33,5.85-16.51 c-0.63-4.18-1.25-5.85-1.25-5.85s5.43,6.06,12.33,5.01c6.9-1.04,1.04-21.94,1.04-21.94s7.97-8.18,15.82-23.42 c7.85-15.25,14.32-60.98,23.1-91.01c8.78-30.03,44.26-97.07,37.41-142.48c-6.84-45.42-24.26-113.23-37.95-118.21 C588.03,848.44,585.43,855.01,585.43,855.01L585.43,855.01z"/> <path class="st7" d="M585.82,854.91c-32.52,41.74-74.99,89.55-100.38,134.88c15.91,43.43,85.91,89.44,139.86,81.86 c12.39-31.74,20.4-62.62,14.75-100.13c-5.65-37.51-24.26-113.23-37.95-118.21C588.42,848.34,585.82,854.91,585.82,854.91 L585.82,854.91z"/> <path class="st7" d="M727.98,785.13c27.97,4.06,90.02,106.26,146.2,176.65c56.18,70.39,61.85,83.81,66,95.89 c4.14,12.09-6.56,25.9-6.56,25.9l5.18,12.78c0,0,7.77-1.48,13.92,12.88c6.15,14.36,73.16,134.7,72.48,168.21 c-0.68,33.5-22.56,73.85-40.34,86.15c-17.78,12.31-60.17,26.67-90.94,23.93c-30.77-2.74-62.91-21.88-81.37-43.76 c-18.46-21.88-32.82-81.37-32.82-81.37s14.36,87.52-5.47,109.4c-19.83,21.88-63.59,40.34-83.42,41.03 c-19.83,0.68-83.42-21.88-103.93-40.34c-20.51-18.46-12.99-38.29-1.37-78.63c11.63-40.34,50.16-154.02,51.2-215.62 c1.04-61.6-19.84-130.52-19.84-130.52s-27.15-33.66-35.5-61.6c-5.08-17-1.28-27.04,6.34-36.86 C620.25,807.31,672.8,777.12,727.98,785.13L727.98,785.13z"/> <path class="st8" d="M933.61,1083.57l5.18,12.78c0,0,0.55-0.11,1.49,0.01l1.1,2.12l-54.3,23.64l-40.76,15.32l-6.13-17.34 L933.61,1083.57L933.61,1083.57z"/> <path class="st6" d="M730.21,783.83c15.43-24.98,92.92-58.6,129.01-99.37c41.74-47.14,77.92-109.05,143.64-126.36 c17.98-4.74,32.68-1.61,44.55,11.55c33.22,36.83,12.97,154.25-8.05,194.06c-15.68,29.71-41.78,62.73-85.4,97.08 c-37.41,29.46-83.89,37.35-118.19,49.5C730.97,947.43,702.82,828.18,730.21,783.83L730.21,783.83z"/> <path class="st7" d="M730.21,783.83c9.3-15.05,57.92-53.71,73.9-71.04c-25.64,76.06-4.43,148.43,89.24,191.62 c-15.46,4.83-47.12,12.78-59.15,15.32C725.4,942.66,702.82,828.18,730.21,783.83L730.21,783.83z"/> <path class="st9" d="M1012.55,557.15c28.83-9.49,50-6.93,49.26-1.46c-0.73,5.47-14.59,12.77-14.59,12.77s10.58,5.11,12.04,13.14 c1.46,8.03-3.29,17.88-3.29,17.88s16.42,8.76,15.69,13.87c-0.73,5.11-15.33,3.28-27,2.92c-11.68-0.37-26.64,3.65-26.64,3.65 s-2.19,6.2,0,14.6c2.19,8.39,9.49,22.26,9.49,22.26s-21.9-0.37-37.59-5.11C935.98,635.36,963.55,573.28,1012.55,557.15 L1012.55,557.15z"/> <path class="st10" d="M798.41,733.23c0,0,2.22-15.23,8.58-25.72c7.11-11.75,24.25-12.11,35.63-6.06c0,0-27.5,20.4-33.85,24.84 C802.4,730.72,798.56,733.23,798.41,733.23L798.41,733.23z"/> <path class="st11" d="M883.41,898.17l14.75,6.33c0,0,11.87-1.22,16.4-9.85c4.53-8.63,3.24-11.22,3.24-11.22l-34.17,13.31 C883.63,896.73,883.27,898.17,883.41,898.17L883.41,898.17z"/> <path class="st12" d="M1056.66,600.97c0,0-5.57-2.27-12.75-4.44c-7.18-2.17-25.89-4.06-25.89-4.06s16.25-1.7,26.55,0.66 c10.29,2.36,14.16,6.69,14.16,6.69S1056.66,600.88,1056.66,600.97L1056.66,600.97z"/> <path class="st12" d="M1049.44,596.01c-5.33-12.04-13.15-19.33-21.9-25.02c10.6,4.11,19.91,11.31,26.12,25.93L1049.44,596.01 L1049.44,596.01z"/> <path class="st5" d="M1019.85,618.38c-3.78,0.82-8.54,1.89-11.67,4.27l10.78-1.9L1019.85,618.38L1019.85,618.38z"/> <path class="st13" d="M1014.48,621.75l79.78,197.15c0,0,14.67-11.46,30.26-18.34c15.59-6.88,13.29-3.67,13.29-3.67l-77.49-179.27 c0,0-19.71-1.83-30.26-0.46C1019.53,618.54,1014.48,621.75,1014.48,621.75L1014.48,621.75z"/> <path class="st13" d="M993.68,559.84c-8.59-19.15-37.95-67.67-11.89-78.84c22.68-9.72,41.63,53.31,50.65,71.35 c0,0-18.5,1.32-22.9,2.2C1005.13,555.44,993.24,559.84,993.68,559.84L993.68,559.84z"/> <path class="st14" d="M1262.72,841.71l3.76,8.47c22.5,50.67-0.55,110.55-51.22,133.05l-27.54,12.23 c-50.68,22.5-110.55-0.55-133.05-51.22l-3.76-8.47C995.77,811.63,1207.59,717.57,1262.72,841.71L1262.72,841.71z"/> <path class="st15" d="M1119.19,804.02c47.96-21.3,97.58-14.38,110.83,15.45c13.25,29.83-14.9,71.28-62.86,92.57 c-47.96,21.3-97.58,14.38-110.83-15.45C1043.08,866.76,1071.22,825.32,1119.19,804.02L1119.19,804.02z"/> <path class="st16" d="M1233.12,839.01c-2.24,26.44-27.84,56.1-65.97,73.03c-34.21,15.19-69.27,16.03-91.36,4.43 c2.25-26.44,27.84-56.1,65.97-73.03C1175.98,828.25,1211.03,827.42,1233.12,839.01L1233.12,839.01z"/> <path class="st17" d="M982.13,575.13c17.91,0,32.43,16.05,32.43,35.86c0,19.8-14.52,35.86-32.43,35.86 c-17.91,0-32.43-16.05-32.43-35.86C949.7,591.18,964.22,575.13,982.13,575.13L982.13,575.13z"/> <path class="st18" d="M643.48,809.05c21.93-5.23,39.71,8.02,39.71,29.6c0,21.58-17.78,43.32-39.71,48.55 c-21.93,5.23-39.71-8.02-39.71-29.6C603.77,836.02,621.55,814.28,643.48,809.05L643.48,809.05z"/> <path class="st9" d="M610.81,845.22c2.61,3.26,3.23,6.77,5.12,9.39c14.13,19.56,50.18,5.55,45.03-22.16 C650.02,773.62,581.49,808.62,610.81,845.22L610.81,845.22z"/> <path class="st6" d="M670.18,793.11c-14.75,29.5-34.25,46.16-67.55,50.32c0,0-93.86,55.56-168.99,61.77 c-75.13,6.2-110.98-31.02-110.98-31.02L205.4,756.81c0,0-59.6-67.54-67.55-149.99c-7.95-82.44,19.87-181.78,63.57-235.41 c43.71-53.64,119.62-90.08,147.73-100.12c28.11-10.04,68.28-12.05,80.33-10.04c12.05,2.01,13.05,3.01,13.05,3.01 s14.06-8.03,60.25-2.01c46.19,6.02,124.51,55.23,152.62,89.36c28.11,34.14,109.33,139.9,124.2,215.22 C798.04,660.19,728.71,728.03,670.18,793.11L670.18,793.11z"/> <path class="st19" d="M692.07,399.27c26.95,37.21,58.98,86.63,76.61,131.58c-19.3-13.44-50.73-36.6-70.92-57.99 c-30.84-32.67-42.61-55.95-42.61-55.95L692.07,399.27L692.07,399.27z"/> <path class="st19" d="M321.91,873.42L207.56,758.97L237.39,724c0,0,19.46,17.37,43.08,55.59 C298.71,809.09,315.29,854.32,321.91,873.42L321.91,873.42z"/> <path class="st19" d="M445.84,262.97c6.41-1.99,23-5.15,56.95-0.73c46.19,6.02,124.51,55.23,152.62,89.36 c10.94,13.28,29.91,37.4,49.88,66.34c-71.84,17.97-132.05-14.78-193.33-57.2c-67.27-46.57-69.85-95.73-69.85-95.73 C442.66,265.29,444.03,264.46,445.84,262.97L445.84,262.97z"/> <path class="st19" d="M223.56,774.99l-18.16-18.18c0,0-59.6-67.54-67.55-149.99c-7.95-82.44,19.87-181.78,63.57-235.41 c43.71-53.64,119.62-90.08,147.73-100.12c28.11-10.04,68.28-12.05,80.33-10.04c12.05,2.01,13.05,3.01,13.05,3.01 s0.3-0.17,0.95-0.44c-0.06,31.49-4.29,152.99-62.18,275.45C327.09,653.95,251.04,744.26,223.56,774.99L223.56,774.99z"/> <path class="st12" d="M443.14,264.66c0,0-16.06-1.96-41.92-21.16c-25.86-19.2-23.11-52.5,5.88-39.96 C436.09,216.08,442.36,264.26,443.14,264.66L443.14,264.66z"/> <path class="st12" d="M442.75,261.13c0,0,4.31-38,33.3-37.61c28.99,0.39,2.74,25.86-10.19,30.95 C452.93,259.56,442.75,261.13,442.75,261.13L442.75,261.13z"/> <path class="st20" d="M340.96,724.71l90.46-100.55l-43.21-49.95c0,0-30.45,26.95-49.35,63.7c-18.9,36.75-22.75,61.6-22.75,61.6 S340.96,724.36,340.96,724.71L340.96,724.71z"/> <path class="st6" d="M237.7,789.2c-0.47,0.2-22.62-0.72-34.84,9.97c-41.4,36.22,15.33,118.26,79.03,100.79 c23.67-6.49,41.62-23.67,41.62-23.67S239.16,790.7,237.7,789.2L237.7,789.2z"/> <path class="st21" d="M221.29,887.44c22.2,13.33,40.43,18.06,60.6,12.53c23.67-6.49,41.62-23.67,41.62-23.67 s-10.02-10.07-23.19-23.37c-1.51-0.93-3.07-1.81-4.68-2.6c-19.47-9.54-63.38-16.41-75.22,4.58 C215.16,864.25,216.54,876.36,221.29,887.44L221.29,887.44z"/> <path class="st22" d="M302.22,891.5c12.89-7.16,21.29-15.2,21.29-15.2s-10.02-10.07-23.19-23.37c-1.51-0.93-3.07-1.81-4.68-2.6 c-9.67-4.74-25.38-8.82-40.19-9.15c-0.17,20.03,16.84,43.76,31.61,48.38C291.3,890.89,296.54,891.48,302.22,891.5L302.22,891.5z"/> <path class="st6" d="M721.31,441.97c2.72-6.93,9.02-20.24,19.06-26.3c47.11-28.4,107.98,50.61,71.95,105.97 c-13.39,20.57-35.22,32.43-35.22,32.43l-1.24-2.39C765.68,516.82,744.05,477.31,721.31,441.97L721.31,441.97z"/> <path class="st21" d="M818.84,460.1c5.94,25.2,4.89,44.01-6.52,61.54c-13.39,20.57-35.22,32.43-35.22,32.43l-1.24-2.39 c-3.81-13.05-9.22-26.74-15.7-40.63c-0.59-22.84,7.18-57.39,27.96-61.68C798.61,447.2,809.73,452.2,818.84,460.1L818.84,460.1z"/> <path class="st22" d="M798.06,538.43c-10.74,10.1-20.96,15.65-20.96,15.65l-1.24-2.39c-3.81-13.05-9.22-26.75-15.7-40.63 c-0.25-9.79,1.03-21.72,4.21-32.5c19.13,5.93,36.56,29.36,36.46,44.84C800.8,527.84,799.77,533.01,798.06,538.43L798.06,538.43z"/> <path class="st12" d="M424.53,670.87c15.49,0,29.39,6.52,38.91,16.85c-8.87-7.68-20.78-12.39-33.88-12.39 c-27.41,0-49.63,20.59-49.63,45.98c0,25.39,22.22,45.98,49.63,45.98c10.39,0,20.03-2.96,28-8.02 c-8.98,7.12-20.49,11.39-33.03,11.39c-28.68,0-51.94-22.34-51.94-49.9C372.59,693.21,395.84,670.87,424.53,670.87L424.53,670.87z"/> <path class="st23" d="M429.56,675.33c27.41,0,49.63,20.59,49.63,45.98c0,25.39-22.22,45.98-49.63,45.98 c-27.41,0-49.63-20.59-49.63-45.98C379.93,695.92,402.15,675.33,429.56,675.33L429.56,675.33z"/> <path class="st3" d="M455.67,696.74c8.36,0,15.93,3.39,21.41,8.87c5.48,5.49,8.87,13.06,8.87,21.41c0,8.35-3.39,15.91-8.87,21.4 l-0.01,0.01c-5.49,5.48-13.05,8.87-21.4,8.87c-7.38,0-14.15-2.65-19.41-7.04c-5.34-4.46-9.12-10.74-10.4-17.87l-1.44-8.05 l6.25,5.28c0.93,0.79,2,1.42,3.16,1.84c1.11,0.41,2.33,0.63,3.62,0.63c2.9,0,5.53-1.18,7.43-3.08c1.9-1.9,3.08-4.53,3.08-7.43 c0-2.91-1.17-5.54-3.07-7.43c-1.91-1.9-4.54-3.08-7.44-3.08l-0.64,0.01l-0.63,0.06l-8.12,0.99l5.64-5.95 c2.81-2.96,6.22-5.36,10.02-6.99C447.39,697.61,451.43,696.74,455.67,696.74L455.67,696.74z M472.91,709.78 c-4.41-4.41-10.51-7.14-17.24-7.14c-3.42,0-6.68,0.7-9.62,1.97c-1.04,0.45-2.04,0.96-3,1.54c2.28,0.83,4.32,2.15,6,3.83 c2.97,2.98,4.81,7.08,4.81,11.6c0,4.53-1.84,8.63-4.81,11.6c-2.97,2.97-7.07,4.81-11.61,4.81c-1.29,0-2.56-0.15-3.77-0.44 c1.52,3.17,3.7,5.96,6.37,8.19c4.22,3.53,9.67,5.66,15.63,5.66c6.74,0,12.84-2.72,17.24-7.13l0.01-0.01 c4.4-4.4,7.13-10.5,7.13-17.24C480.04,720.28,477.32,714.19,472.91,709.78L472.91,709.78z"/> <path class="st12" d="M565.64,600.25c2.73,15.25,11.59,27.79,23.44,35.34c-9.12-7.38-15.85-18.28-18.16-31.17 c-4.82-26.98,11.53-52.48,36.52-56.95c25-4.47,49.17,13.78,54,40.76c1.83,10.23,0.61,20.24-2.96,28.98 c5.43-10.09,7.61-22.17,5.4-34.53c-5.05-28.23-31.14-47.19-58.26-42.34C578.49,545.19,560.59,572.02,565.64,600.25L565.64,600.25z"/> <path class="st23" d="M570.92,604.42c4.82,26.98,29,45.23,54,40.76c25-4.47,41.35-29.97,36.52-56.95c-4.83-26.98-29-45.23-54-40.76 C582.45,551.94,566.09,577.44,570.92,604.42L570.92,604.42z"/> <path class="st3" d="M596.88,626.3c-0.75-4.13-0.6-8.23,0.3-12.08c0.93-3.99,2.67-7.73,5.07-10.99l3.3-4.48l0.33,5.56l0.06,0.7 l0.1,0.7c0.57,3.2,2.39,5.86,4.86,7.58c2.47,1.72,5.6,2.5,8.8,1.93c3.19-0.56,5.86-2.38,7.58-4.86c1.72-2.47,2.5-5.6,1.93-8.8 c-0.25-1.41-0.74-2.71-1.41-3.86c-0.69-1.19-1.6-2.25-2.65-3.12l-4.3-3.57h5.59c7.18,0,13.96,2.59,19.24,7.02 c5.2,4.36,8.96,10.5,10.25,17.7l0.03,0.23c1.38,8.08-0.6,15.96-4.95,22.19c-4.38,6.29-11.18,10.92-19.33,12.38l-0.22,0.04 c-8.09,1.38-15.97-0.61-22.2-4.95C602.96,641.25,598.34,634.45,596.88,626.3L596.88,626.3z M600.87,625.8 c1.3,6.96,5.28,12.76,10.68,16.52c5.46,3.8,12.36,5.52,19.42,4.26l0.09-0.02c7.02-1.28,12.86-5.27,16.65-10.71 c3.8-5.46,5.52-12.36,4.26-19.41c-1.12-6.24-4.38-11.56-8.87-15.32c-3.39-2.85-7.5-4.81-11.94-5.64l0.12,0.21 c0.91,1.56,1.57,3.3,1.9,5.16c0.77,4.29-0.28,8.49-2.59,11.81c-2.31,3.31-5.89,5.75-10.18,6.51c-4.29,0.78-8.49-0.27-11.81-2.58 c-2.44-1.7-4.4-4.08-5.57-6.92c-0.84,1.73-1.49,3.56-1.94,5.46c-0.77,3.33-0.9,6.87-0.26,10.46L600.87,625.8L600.87,625.8z"/> <path class="st12" d="M662.65,626.08c-7.95-21.79-5.63-38.47,6.5-50.28C665.49,593.98,663.28,610.79,662.65,626.08L662.65,626.08z"/> <path class="st24" d="M602.99,452.25l-95.78,96.95l-46.44-47.04c0,0,18.2-37.02,55.53-54.75c37.33-17.73,62.29-20.79,62.29-20.79 S602.64,452.24,602.99,452.25L602.99,452.25z"/> <path class="st25" d="M355.96,807.15c0,0,66.89,36.34,129.04,37.92c62.15,1.58,126.93-42.13,169.07-87.95 c42.13-45.82,79-94.28,74.79-125.35c-4.21-31.07-18.96-62.67-18.96-62.67"/> <path class="st12" d="M374.1,791.7c-19.27,3.53-27.45,24.58-18.13,39.14C354.06,814.31,360.62,801.33,374.1,791.7L374.1,791.7z"/> <path class="st12" d="M359.94,792.9c-10.67,0.41-16.71,11.13-12.82,19.71C347.38,803.54,351.92,797.05,359.94,792.9L359.94,792.9z"/> <path class="st12" d="M730.97,565.28c-18.29-7.03-36.24,6.68-35.87,23.96C702.08,574.14,714.44,566.48,730.97,565.28L730.97,565.28 z"/> <path class="st12" d="M718.26,558.93c-9.32-5.21-20.07,0.79-21.21,10.14C701.99,561.47,709.25,558.29,718.26,558.93L718.26,558.93z "/> <path class="st25" d="M530.26,785.82c0,0,11.03,10.33,27.93,10.8c16.9,0.47,60.79-20.42,74.64-49.29 c13.85-28.87,5.16-37.32-0.47-39.43c-5.63-2.11-10.09-2.35-10.09-2.35"/> <path class="st12" d="M521.4,773.78c1.18,5.69,3.39,10.76,7.06,14.18l3.98-3.91C528.54,780.62,524.86,777.2,521.4,773.78 L521.4,773.78z"/> <path class="st12" d="M608.06,706.97c5.04-2.89,10.3-4.61,15.29-4.14l-0.28,5.58C617.92,707.77,612.92,707.29,608.06,706.97 L608.06,706.97z"/> <path class="st26" d="M543.8,759.69c0,0,8.13-12.33,21.52-24.14c13.38-11.81,31.23-23.09,31.23-23.09"/> <path class="st12" d="M541.24,766.6c-0.21-2.87,0.14-5.59,1.42-7.72l2.43,1.32C543.71,762.37,542.42,764.5,541.24,766.6 L541.24,766.6z"/> <path class="st12" d="M603.23,709.76c-2.92-0.11-5.66,0.35-7.78,1.73l1.43,2.42C599.02,712.42,601.14,711.04,603.23,709.76 L603.23,709.76z"/> <path class="st26" d="M576.7,709.37c1.82-2.52,8.81-8,11.64-8.44"/> <path class="st12" d="M594.41,700.9c-2.37-1.67-6.12-1.92-8.21-0.68l1.07,2.56C590.06,701.69,592.67,701.02,594.41,700.9 L594.41,700.9z"/> <path class="st12" d="M573.9,715.28c-0.59-2.84,0.67-6.37,2.63-7.8l1.92,2C576.36,711.61,574.71,713.74,573.9,715.28L573.9,715.28z "/> <path class="st3" d="M573.64,691.75c-1.95-1.19-5.15-4.24-7.81-7.36c-2.37-2.78-4.38-5.73-4.84-7.66l3.44-0.82 c0.32,1.36,2.03,3.77,4.09,6.19c2.44,2.87,5.3,5.62,6.96,6.63L573.64,691.75L573.64,691.75z"/> <path class="st12" d="M562.08,668.63c-1.89,3.17-1.83,7.94-0.06,10.47l3.14-1.61C563.52,674.07,562.41,670.82,562.08,668.63 L562.08,668.63z"/> <path class="st12" d="M582.34,693.21c-3.54,1.03-8.15-0.22-10.15-2.57l2.35-2.64C577.44,690.46,580.3,692.34,582.34,693.21 L582.34,693.21z"/> <path class="st27" d="M440.71,265.16c-26.2,193.88-103.9,354.98-249.36,472.97"/> <path class="st25" d="M165.6,698.83c0,0,48.79-55.56,130.1-162.63c81.31-107.06,145.01-269.69,145.01-269.69"/> <path class="st27" d="M438.96,264.18C334.93,374.2,208.14,522.62,151.8,663.49"/> <path class="st25" d="M135.89,562.71c0,0,18.18-78.8,89.41-155.32c71.22-76.53,105.32-94.71,141.69-114.41 c36.37-19.7,71.98-28.03,71.98-28.03 M444.58,265.79c0,0,24.75,41.08,74.79,76.9c50.03,35.81,111.13,61.62,144.84,65.84 c33.71,4.21,36.87,2.63,36.87,2.63"/> <path class="st27" d="M681.06,384.29c0,0-58.99-12.11-118.5-41.61c-59.52-29.49-114.29-79.53-114.29-79.53"/> <path class="st25" d="M656.31,354.27c0,0-50.56-14.22-86.9-31.07c-36.34-16.85-85.32-61.62-85.32-61.62"/> <line class="st27" x1="262.85" y1="752.85" x2="233.81" y2="783.32"/> <line class="st25" x1="243.37" y1="794.65" x2="273.13" y2="769.15"/> <line class="st27" x1="282.69" y1="781.9" x2="258.25" y2="809.17"/> <line class="st25" x1="289.77" y1="796.07" x2="269.23" y2="818.74"/> <line class="st27" x1="277.02" y1="828.65" x2="296.15" y2="810.59"/> <line class="st25" x1="302.52" y1="822.63" x2="287.29" y2="838.92"/> <line class="st27" x1="293.32" y1="846.72" x2="307.13" y2="834.32"/> <line class="st25" x1="302.88" y1="854.16" x2="311.38" y2="845.3"/> <line class="st27" x1="669.39" y1="438.41" x2="710.09" y2="426.23"/> <line class="st25" x1="717.61" y1="437.38" x2="683.91" y2="456.3"/> <line class="st27" x1="693.24" y1="467.71" x2="725.13" y2="449.3"/> <line class="st25" x1="731.87" y1="459.93" x2="705.69" y2="480.41"/> <line class="st27" x1="715.8" y1="490.26" x2="739.39" y2="473.15"/> <line class="st25" x1="745.87" y1="485.08" x2="727.2" y2="499.86"/> <line class="st27" x1="738.87" y1="509.19" x2="752.87" y2="496.49"/> <line class="st25" x1="759.09" y1="509.19" x2="751.05" y2="517.74"/> <line class="st28" x1="353.46" y1="711.57" x2="321.49" y2="678.45"/> <line class="st29" x1="333.67" y1="647.99" x2="372.5" y2="689.49"/> <line class="st28" x1="391.92" y1="668.17" x2="349.28" y2="620.2"/> <path class="st29" d="M368.31,594.7l43.78,50.25 M476.61,479.7l49.1,50.07"/> <line class="st28" x1="495.08" y1="460.25" x2="545.15" y2="509.84"/> <line class="st29" x1="518.41" y1="446.64" x2="567.03" y2="486.99"/> <line class="st28" x1="550.01" y1="434" x2="585.5" y2="468.52"/> <path class="st27" d="M932.73,1082.91c0,0-42.38,20.76-92.54,37.19c-50.16,16.43-102.92,26.81-141.84,27.68 c-38.92,0.86-67.46-13.84-67.46-13.84 M626.56,1146.05c74.86,59.37,259.76-21.77,314.81-47.57 M924.09,1106.69l-7.06-17.35 M908.8,1113.16l-7.06-17.35 M892.92,1119.92l-7.06-17.35"/> <path class="st29" d="M874.98,1126.68l-7.06-17.35 M857.03,1134.21l-7.06-17.35 M838.52,1140.01l-5.35-17.95"/> <path class="st29" d="M819.37,1146.3l-4.85-18.09 M799.28,1152.03l-4.85-18.09 M780.12,1156.3l-4.85-18.09"/> <line class="st29" x1="758.92" y1="1160.38" x2="755.97" y2="1141.88"/> <line class="st29" x1="737.31" y1="1164.14" x2="735.33" y2="1145.51"/> <line class="st29" x1="716.02" y1="1166.06" x2="714.94" y2="1147.36"/> <line class="st29" x1="694.66" y1="1166.81" x2="695.34" y2="1148.09"/> <line class="st29" x1="671.38" y1="1165.51" x2="673.49" y2="1146.9"/> <line class="st29" x1="653.65" y1="1160.92" x2="655.76" y2="1143.2"/> <line class="st30" x1="639.36" y1="1154.67" x2="641.47" y2="1138.09"/> <path class="st31" d="M705.31,781.48c0,0-20.44,25.86,0.19,82.61c20.64,56.75,71.19,111.43,105.24,113.5 c34.05,2.06,55.65-31,55.65-31l11.77,14.89c0,0-4.48,15.08-24.08,30.55c-19.6,15.48-26.83,20.64-26.83,20.64 c69.17,91.24,92.22,198.33,93.04,313.06c0,0-33.76-3.21-78.78,9.65c-45.02,12.86-98.88,32.96-144.7,36.98 c-45.82,4.02-90.84-11.25-112.54-28.94c-21.71-17.69-33.76-30.55-33.76-30.55s41.8-28.14,57.88-58.68 c16.08-30.55,29.31-185.94,21.92-242.3c-7.39-56.36-11.09-64.68-11.09-64.68s-23.1-62.83-29.57-74.84 c-6.47-12.01-6.21-15.13-5.34-17.23c0.88-2.1,15.22-9.97,15.22-9.97s11.68,35.79,22.42,55.89c10.74,20.1,20.44,33.61,26.33,35.34 c5.89,1.73,45.38-15.59,52.44-20.88c8.7-6.52-37.61-80.12-15.86-131.57C684.49,782.35,705.16,780.62,705.31,781.48L705.31,781.48z"/> <path class="st12" d="M626.3,1394.84c0,0-16.14,12.67-26.76,23.08c-10.62,10.42-11.85,23.49-9.4,26.56 c2.45,3.06,37.79-4.08,63.73-14.3c19.82-7.8,35.46-15.37,42.84-19.96c-6.47-0.32-14.85-1.12-23.34-2.97 c-12.25-2.67-22.98-12.19-28.56-17.96c-2.76,0.43-5.04,0.95-6.67,1.46C631.61,1392.8,625.69,1395.25,626.3,1394.84L626.3,1394.84z"/> <path class="st12" d="M717.82,1403.65c0,0-21.09,5.34-38.52,1.41c-17.43-3.94-49.49-30.93-49.49-30.93s13.78,19.12,24.46,26.43 c10.68,7.31,20.53,11.25,32.06,11.81C697.85,1412.93,717.82,1403.65,717.82,1403.65L717.82,1403.65z"/> <path class="st12" d="M860.49,1356.11c0,0,24.91,15.11,40.64,19.4c15.72,4.29,33.9,3.27,49.83-13.07 c15.93-16.34,28.38-44.72,28.38-44.72s-12.46,35.33-21.24,45.95c-8.78,10.62-23.08,23.08-43.29,21.65 C894.59,1383.88,859.87,1356.11,860.49,1356.11L860.49,1356.11z"/> <path class="st12" d="M1007.21,1404.8c-14,7.6-11.93,9.32-37.9,4.39c-25.97-4.93-64.22-16.23-67.32-18.89 c-3.09-2.67,19.51-7.41,34.83-14.75c15.33-7.34,16.33-16.95,23.15-16.36C975.1,1360.5,1031.04,1391.85,1007.21,1404.8 L1007.21,1404.8z"/> <path class="st5" d="M705.47,786.12c0,0,7.41-7.12,18.23-11.25c10.82-4.13,23.79-0.14,23.79-0.14l4.56,1.14 c0,0-8.54,0.57-16.95,2.42c-8.4,1.85-16.67,7.97-18.23,8.4C715.3,787.11,705.47,786.12,705.47,786.12L705.47,786.12z"/> <path class="st2" d="M708.18,786.4c0,0,8.69-0.14,12.68-1.85c3.99-1.71,5.46-4.37,11.3-6.07c5.84-1.71,21.01-2.64,21.01-2.64 l94.68,130.68c0,0-12.71,9.53-28.95,14.47c-16.24,4.94-23.3,8.83-33.18,7.77c-9.88-1.06-40.59-17.65-51.89-26.83 c-11.29-9.18-18.71-43.77-20.47-62.12C711.6,821.45,708.78,786.5,708.18,786.4L708.18,786.4z"/> <path class="st12" d="M487.81,1241.02c32.93,10.25,59.51,0.64,83.05-23.55c-4.2,14.11-27.19,28.85-51.49,30.42 C505.77,1248.76,487.69,1241.03,487.81,1241.02L487.81,1241.02z"/> <path class="st32" d="M455.67,699.69c15.09,0,27.33,12.24,27.33,27.33c0,15.09-12.24,27.33-27.33,27.33 c-13.44,0-24.62-9.7-26.9-22.48c2.34,1.98,5.37,3.17,8.68,3.17c7.43,0,13.46-6.03,13.46-13.46c0-7.43-6.03-13.46-13.46-13.46 c-0.55,0-1.08,0.03-1.61,0.1C440.81,702.97,447.86,699.69,455.67,699.69L455.67,699.69z"/> <path class="st12" d="M442.5,734.06c4.93-2,8.41-6.83,8.41-12.48c0-2.59-0.73-5.01-2-7.06c2.9-2.12,6.47-3.36,10.34-3.36 c9.7,0,17.57,7.86,17.57,17.57c0,9.7-7.86,17.57-17.57,17.57C451.4,746.29,444.76,741.15,442.5,734.06L442.5,734.06z"/> <path class="st23" d="M436.72,705.56c8.59,0,15.56,6.97,15.56,15.56c0,8.59-6.97,15.56-15.56,15.56c-8.59,0-15.56-6.97-15.56-15.56 C421.15,712.52,428.12,705.56,436.72,705.56L436.72,705.56z"/> <path class="st32" d="M599.49,625.83c2.66,14.86,16.86,24.75,31.71,22.09c14.86-2.66,24.75-16.86,22.09-31.71 c-2.37-13.23-13.88-22.52-26.87-22.52c2.36,1.96,4.07,4.73,4.65,7.99c1.31,7.32-3.56,14.31-10.88,15.62 c-7.32,1.31-14.31-3.56-15.62-10.88c-0.1-0.54-0.16-1.07-0.19-1.6C600.1,610.63,598.12,618.14,599.49,625.83L599.49,625.83z"/> <path class="st12" d="M631.07,606.51c-1,5.34-5.2,9.76-10.86,10.78c-2.99,0.53-5.92,0.04-8.44-1.24c-1.13,2.32-1.76,4.92-1.76,7.68 c0,9.7,7.87,17.57,17.57,17.57c9.7,0,17.57-7.87,17.57-17.57C645.14,615.23,639.1,608.13,631.07,606.51L631.07,606.51z"/> <path class="st23" d="M617.78,589.7c7.85,0,14.21,6.36,14.21,14.21c0,7.85-6.36,14.21-14.21,14.21c-7.85,0-14.21-6.36-14.21-14.21 C603.57,596.06,609.93,589.7,617.78,589.7L617.78,589.7z"/> <path class="st12" d="M467.03,761.82c-22.85-3.99-38.86,1.23-48.35,15.25C435.94,770.27,452.09,765.13,467.03,761.82L467.03,761.82 z"/> </g> </svg>